<?xml version="1.0" encoding="utf-8"?>
<!-- Generator: Adobe Illustrator 24.0.1, SVG Export Plug-In . SVG Version: 6.00 Build 0)  -->
<svg version="1.1" id="Capa_1" xmlns="http://www.w3.org/2000/svg" xmlns:xlink="http://www.w3.org/1999/xlink" x="0px" y="0px"
	 width="230.3px" height="95.4px" viewBox="0 0 230.3 95.4" style="enable-background:new 0 0 230.3 95.4;" xml:space="preserve">
<style type="text/css">
	.st0{fill:#FFFFFF;}
	.st1{fill:#AF9F84;stroke:#AF9F84;stroke-width:0.5;stroke-miterlimit:10;}
	.st2{fill:#26292E;}
	.st3{fill:none;}
	.st4{fill:#55595F;}
</style>
<g>
	<path class="st0" d="M41.5,51.3c0,1.3-0.1,3.4-0.2,6.3h-0.8c-0.3,0-1,0-2.1-0.1c-1.1-0.1-2.4-0.1-3.8-0.1L4.1,57.1
		c-0.8,0-1.2-0.2-1.2-0.7c0-0.3,0.7-0.6,2-0.7c1.9-0.1,3-0.3,3.3-0.6c0.4-0.3,0.6-1.2,0.6-2.8V11.2c0-1.8-0.2-2.9-0.6-3.2
		C7.8,7.7,6.5,7.6,4.2,7.6c-0.9,0-1.4-0.3-1.4-0.8c0-0.4,0.3-0.7,0.9-0.7h0.7C6,6.3,9.2,6.3,14,6.3c0.4,0,1.3,0,2.6-0.1
		c1.3-0.1,2.3-0.1,3.2-0.1h0.8c0.9,0,1.3,0.2,1.3,0.7c0,0.3-0.1,0.5-0.4,0.5c-0.3,0.1-1.1,0.1-2.5,0.2c-1.4,0-2.3,0.3-2.5,0.7
		c-0.3,0.4-0.4,1.7-0.4,3.9v43.3c1.3,0,3.2,0.1,5.5,0.1c5.7,0,9.8-0.3,12.1-0.9c2.3-0.6,3.9-1.7,4.8-3.3c0.8-1.6,1.3-3.8,1.5-6.5
		c0-0.6,0.3-1,0.8-1c0.6,0,0.9,0.4,0.8,1.1v1.8c0,0.1,0,0.3,0,0.7c0,0.3,0,0.7,0,1V51.3z"/>
	<path class="st0" d="M72,50.5c0,2.7,0,5-0.1,6.9c-0.3,0-0.7,0.1-1.1,0.1c0,0-0.4,0-1.1-0.1c-0.7-0.1-1.6-0.1-2.8-0.1h-3.4
		l-12.5-0.1h-6c-0.6,0-1-0.2-1-0.5c0-0.3,1-0.5,2.9-0.6c0.5,0,0.9-0.2,1-0.4c0.1-0.2,0.2-0.7,0.2-1.6V29.4c0-2.7-0.2-4.2-0.7-4.3
		c-0.2-0.1-0.6-0.1-1.3-0.1c-0.7,0-1.1,0-1.3-0.1c-0.5,0-0.8-0.2-0.8-0.6c0-0.3,0.3-0.5,1-0.5H55c0.5,0,1.1,0,1.7,0
		c0.9,0,1.4,0.2,1.4,0.6c0,0.3-0.8,0.4-2.4,0.5c-0.8,0-1.2,0.2-1.4,0.5c-0.1,0.3-0.2,1.3-0.2,3.2v27.3c1.9,0,3.4,0.1,4.2,0.1
		c5.3,0,8.5-0.5,9.9-1.5c1.1-0.8,1.8-2.6,2-5.3c0.1-1.2,0.4-1.8,0.8-1.8C71.7,47.3,72,48.4,72,50.5z"/>
	<path class="st0" d="M106.9,56.8c0,0.3-0.5,0.4-1.5,0.4h-0.5h-4.5h-2.1c-0.8,0-2,0-3.4,0h-2.2h-1.3H91c-0.9,0-1.3-0.2-1.3-0.6
		c0-0.4,0.9-0.6,2.6-0.7c2.1,0,3.2-0.3,3.2-0.7c0-0.1-0.1-0.6-0.4-1.4c-0.1-0.4-0.7-2-1.7-4.9l-0.9-2.5H82c-2,5-3,7.9-3,8.7
		c0,0.4,0.3,0.7,0.9,0.7l1,0.1h1.1l0.7,0.2c0.6,0,0.9,0.1,0.9,0.4c0,0.3-0.5,0.5-1.5,0.5c-0.1,0-1,0-2.6-0.1c-1.6-0.1-3-0.1-4.2-0.1
		h-0.7l-0.7,0.1L73,57.2h-0.1c-0.8,0-1.2-0.1-1.2-0.4c0-0.3,0.3-0.5,1-0.6c0.9,0,1.5-0.1,1.8-0.1c0.8-0.1,1.4-0.4,1.6-0.7
		c0.3-0.1,1.5-2.9,3.6-8.4c0.8-2.2,1.6-4.3,2.4-6.2c0.3-0.7,0.5-1.2,0.6-1.5c0.1-0.3,0.3-0.9,0.6-1.5c0.8-2,2-5.1,3.5-9.1l1.1-3.1
		l0.5-1.3c0.3-0.7,0.6-1.1,0.9-1.1c0.1,0,0.5,0.7,1,2.1c1.5,3.6,5.3,13,11.4,28.3c0.6,1.5,1.1,2.3,1.7,2.4c0.1,0,0.9,0.1,2.3,0.2
		C106.5,56.1,106.9,56.4,106.9,56.8z M92,45.2l-4.7-12.5c-1.2,2.9-2.8,7.1-4.9,12.5H92z"/>
	<path class="st0" d="M144.4,56.6c0,0.4-0.4,0.6-1.3,0.6c0.2,0,0,0-0.7,0c-0.7,0-1.8,0-3.3,0h-2.6c-0.7,0-1.7,0-2.9,0
		c-1.2,0-2.3,0-3.2,0H130c-0.9,0-1.3-0.2-1.3-0.5c0-0.2,0.1-0.3,0.3-0.4c0.2,0,1-0.1,2.5-0.1c1,0,1.6-0.2,1.8-0.4
		c0.2-0.2,0.3-1.2,0.3-2.7V29.3c-0.9,2.4-2.3,6.5-4.3,12.1c-1.1,3.4-2.5,7.7-4.3,13.1c-0.5,1.5-0.9,2.3-1.2,2.3
		c-0.4,0-0.8-0.7-1.2-2c-1.1-3.4-4.4-11.7-9.9-25.1v25.2c0,0.6,0.2,1,0.7,1.2c0.7,0,1.6,0.1,2.6,0.1c0.6,0,1,0.2,1,0.5
		c0,0.4-0.5,0.6-1.5,0.6h-1c-0.4,0-1,0-1.5,0h-4.2c-0.4,0-1,0-1.6,0c-0.7,0-1.1-0.2-1.1-0.6c0-0.3,0.8-0.5,2.3-0.6
		c1.1,0,1.7-0.2,1.9-0.4c0.2-0.2,0.3-1,0.3-2.4V28.4c0-1.7-0.2-2.6-0.5-2.9c-0.3-0.3-1.4-0.5-3.2-0.5c-0.6,0-1-0.2-1-0.6
		c0-0.3,0.4-0.5,1.2-0.5c0.8,0,3.8-0.1,8.8-0.1l0.3,0.8c0.2,0.5,0.6,1.3,1,2.3l1.8,4.4c0.5,1.2,1.3,3.3,2.5,6.2l3.9,9.6
		c0.7-2.3,1.3-4.1,1.7-5.2l6.3-18.1h5.6h3.2c1.3,0,1.9,0.2,1.9,0.6c0,0.4-0.5,0.6-1.4,0.6c-1.3,0-2,0.1-2.3,0.1
		c-0.7,0.2-1,0.8-1,1.6v25.9c0,2,0.2,3,0.5,3.2c0.3,0.1,1.5,0.2,3.4,0.2C144.1,56,144.4,56.2,144.4,56.6z"/>
	<path class="st0" d="M173.8,48.4c0,2.3-0.8,4.1-2.5,5.6c-1.6,1.5-3.9,2.4-6.8,2.9c-1.7,0.2-5.5,0.4-11.4,0.4c-2.6,0-4.1,0-4.5,0
		h-0.1h-1c-0.3,0-0.5-0.1-0.5-0.5c0-0.3,0.1-0.5,0.3-0.5c0.2,0,0.8-0.1,1.8-0.1c1,0,1.5-0.1,1.7-0.3c0.1-0.2,0.2-0.8,0.2-1.8V27.5
		c0-1.3-0.1-2-0.2-2.2c-0.1-0.2-0.9-0.4-2.3-0.4c-1,0-1.5-0.2-1.5-0.5c0-0.4,0.5-0.6,1.6-0.6h1.2c0.5,0,2,0,4.3,0.1h3.5
		c3.4,0,5.5,0.1,6.4,0.2c1.2,0.1,2.2,0.3,3.2,0.7c3.5,1.3,5.3,3.5,5.3,6.7c0,4.5-3.4,7.1-10.3,7.9l0.1,0.2c3.6,0,6.4,0.9,8.4,2.5
		C172.7,43.6,173.8,45.7,173.8,48.4z M165.8,31.9c0-3.2-0.7-5.2-2.2-6.1c-0.8-0.5-2.2-0.7-4.1-0.7c-0.8,0-1.4,0-1.8,0.1l-0.6,0.1
		v13.6c2.6,0,4.4-0.3,5.4-0.7C164.7,37.1,165.8,35,165.8,31.9z M167.4,47.8c0-5.2-2.9-7.7-8.7-7.7h-1.5v14.7c0,0.6,0.1,0.9,0.4,1.1
		c0.2,0.1,0.9,0.2,2.1,0.2C164.8,56,167.4,53.3,167.4,47.8z"/>
	<path class="st0" d="M191.8,56.7c0,0.3-0.2,0.4-0.7,0.4h-0.7h-1.5H187c-0.4,0-0.8,0-1.2,0c-0.4,0-0.7,0-0.8,0c-0.5,0-1.4,0-2.8,0
		s-2.4,0-3,0h-0.3c-0.8,0-1.2-0.1-1.2-0.4c0-0.3,0.5-0.5,1.6-0.6c1.5-0.1,2.2-0.3,2.3-0.5c0.1-0.2,0.1-1.3,0.1-3.2V28.7
		c0-1.9-0.1-3-0.1-3.4c-0.1-0.3-0.5-0.5-1.1-0.6h-1.5h-0.7c-0.4,0-0.7-0.2-0.7-0.5c0-0.3,0.3-0.5,1-0.5c0,0,0.1,0,0.4,0
		c0.3,0,0.9,0,1.6,0h5.3c0.3,0,0.7,0,1.3,0c0.6,0,1.1,0,1.6,0h1.8c0.8,0,1.2,0.2,1.2,0.6c0,0.3-0.8,0.5-2.5,0.5
		c-0.7,0-1.1,0.1-1.2,0.3s-0.2,0.9-0.2,2v27.7c0,0.5,0.2,0.8,0.5,1c0.4,0.1,1.2,0.3,2.6,0.4C191.5,56.2,191.8,56.4,191.8,56.7z"/>
	<path class="st0" d="M227.8,56.8c0,0.3-0.5,0.4-1.5,0.4h-0.5h-4.5h-2.1c-0.8,0-2,0-3.4,0h-2.2h-1.3h-0.4c-0.9,0-1.3-0.2-1.3-0.6
		c0-0.4,0.9-0.6,2.6-0.7c2.1,0,3.2-0.3,3.2-0.7c0-0.1-0.1-0.6-0.4-1.4c-0.1-0.4-0.7-2-1.7-4.9l-0.9-2.5h-10.5c-2,5-3,7.9-3,8.7
		c0,0.4,0.3,0.7,0.9,0.7l1,0.1h1.1l0.7,0.2c0.6,0,0.9,0.1,0.9,0.4c0,0.3-0.5,0.5-1.5,0.5c-0.1,0-1,0-2.6-0.1c-1.6-0.1-3-0.1-4.2-0.1
		h-0.7l-0.7,0.1l-0.8,0.1h-0.1c-0.8,0-1.2-0.1-1.2-0.4c0-0.3,0.3-0.5,1-0.6c0.9,0,1.5-0.1,1.8-0.1c0.8-0.1,1.4-0.4,1.6-0.7
		c0.3-0.1,1.5-2.9,3.6-8.4c0.8-2.2,1.6-4.3,2.4-6.2c0.3-0.7,0.5-1.2,0.6-1.5c0.1-0.3,0.3-0.9,0.6-1.5c0.8-2,2-5.1,3.5-9.1l1.1-3.1
		l0.5-1.3c0.3-0.7,0.6-1.1,0.9-1.1c0.1,0,0.5,0.7,1,2.1c1.5,3.6,5.3,13,11.4,28.3c0.6,1.5,1.1,2.3,1.7,2.4c0.1,0,0.9,0.1,2.3,0.2
		C227.4,56.1,227.8,56.4,227.8,56.8z M212.9,45.2l-4.7-12.5c-1.2,2.9-2.8,7.1-4.9,12.5H212.9z"/>
</g>
<g>
	<path class="st1" d="M20.8,75.2c0-0.8,0.5-1.4,1.3-1.4s1.2,0.6,1.3,1.4c0,0.8-0.5,1.4-1.3,1.4C21.3,76.6,20.8,76,20.8,75.2z"/>
	<path class="st1" d="M41.9,76.4c-0.5,0.7-1.1,1.4-1.7,2.1c-0.6,0.7-1.2,1.3-1.9,1.7c-0.3,0.2-0.6,0.3-1,0.5
		c-0.4,0.1-0.8,0.2-1.1,0.2c-0.4,0-0.8-0.1-1.1-0.4c-0.3-0.3-0.5-0.8-0.5-1.5c0-0.2,0-0.4,0-0.7c0-0.2,0.1-0.5,0.1-0.8
		c-0.3,0.4-0.7,0.8-1,1.2c-0.4,0.4-0.8,0.7-1.2,1c-0.4,0.3-0.8,0.5-1.2,0.7c-0.4,0.2-0.7,0.3-1.1,0.3c-0.7,0-1.2-0.2-1.5-0.6
		c-0.3-0.4-0.5-1-0.5-1.6c0-0.5,0.1-1,0.2-1.5c0.1-0.5,0.3-1.1,0.6-1.6c0.3-0.5,0.6-1.1,0.9-1.5c0.4-0.5,0.8-0.9,1.2-1.3
		c0.5-0.4,0.9-0.7,1.5-0.9c0.5-0.2,1.1-0.3,1.6-0.3c0.8,0,1.5,0.4,2,1c0-0.1,0.1-0.2,0.1-0.2c0-0.1,0.1-0.2,0.1-0.2
		c0.2-0.4,0.4-0.6,0.6-0.6c0.2,0,0.3,0.1,0.5,0.3c0.2,0.2,0.4,0.5,0.7,0.8c-0.1,0.1-0.2,0.3-0.4,0.5c-0.2,0.3-0.4,0.6-0.6,1
		c-0.2,0.4-0.4,0.8-0.7,1.3c-0.2,0.5-0.5,1-0.7,1.4c-0.2,0.5-0.4,1-0.5,1.4c-0.1,0.5-0.2,0.9-0.2,1.2c0,0.4,0,0.7,0.2,0.9
		c0.2,0.2,0.4,0.2,0.6,0.2c0.3,0,0.6-0.1,1-0.2c0.4-0.2,0.6-0.3,0.8-0.4c0.7-0.4,1.3-1,1.8-1.6c0.5-0.6,1.1-1.3,1.6-2L41.9,76.4z
		 M30.5,80.4c0.3,0,0.6-0.1,1-0.4c0.4-0.3,0.8-0.6,1.2-1c0.4-0.4,0.8-0.8,1.2-1.3c0.4-0.5,0.8-0.9,1.1-1.4c0.2-0.6,0.4-1.3,0.6-1.9
		c0.2-0.6,0.5-1.2,0.7-1.7c-0.2-0.2-0.4-0.4-0.6-0.5c-0.2-0.1-0.4-0.2-0.7-0.2c-0.3,0-0.7,0.1-1.1,0.4c-0.4,0.3-0.8,0.6-1.2,1
		c-0.4,0.4-0.8,0.9-1.2,1.4c-0.4,0.5-0.7,1.1-1,1.6c-0.3,0.5-0.5,1.1-0.7,1.6c-0.2,0.5-0.3,0.9-0.3,1.3c0,0.3,0.1,0.5,0.2,0.7
		C30,80.3,30.2,80.4,30.5,80.4z"/>
	<path class="st1" d="M52.8,76.2c-0.3,0.4-0.7,0.9-1.1,1.4c-0.4,0.5-0.8,1-1.3,1.4c-0.5,0.4-0.9,0.8-1.4,1.1
		c-0.5,0.3-0.9,0.5-1.4,0.5c-0.4,0-0.7-0.2-0.9-0.6c-0.2-0.4-0.2-0.8-0.2-1.3c0-0.5,0.1-1.1,0.2-1.7c-0.2,0.2-0.4,0.5-0.8,0.9
		c-0.3,0.4-0.7,0.8-1.1,1.2c-0.4,0.4-0.8,0.7-1.3,1c-0.4,0.3-0.8,0.4-1.2,0.4c-0.3,0-0.6-0.1-0.8-0.4s-0.3-0.8-0.3-1.6
		c0-0.4,0-0.9,0.1-1.5c0.1-0.5,0.2-1.1,0.3-1.6c0.1-0.5,0.3-1.1,0.4-1.6s0.3-1,0.5-1.4c0.2-0.4,0.3-0.7,0.4-0.9
		c0.1-0.2,0.2-0.3,0.3-0.3s0.3,0.1,0.5,0.3c0.2,0.2,0.5,0.5,0.8,0.8c-0.1,0.1-0.2,0.3-0.3,0.6c-0.2,0.3-0.3,0.6-0.5,1
		c-0.2,0.4-0.4,0.8-0.6,1.3c-0.2,0.5-0.4,0.9-0.5,1.4c-0.2,0.5-0.3,0.9-0.4,1.3C42,78.7,42,79,42,79.3c0,0.3,0.1,0.5,0.2,0.6
		c0.1,0.1,0.2,0.2,0.4,0.2c0.2,0,0.4-0.1,0.7-0.3c0.3-0.2,0.6-0.4,0.9-0.7c0.3-0.3,0.6-0.6,0.9-0.9c0.3-0.3,0.6-0.6,0.8-0.9
		c0.3-0.3,0.5-0.6,0.6-0.8c0.2-0.2,0.3-0.4,0.3-0.5c0.2-0.9,0.3-1.7,0.5-2.3c0.2-0.6,0.4-1,0.5-1.3c0.1-0.4,0.3-0.6,0.3-0.8
		c0.1-0.2,0.2-0.2,0.3-0.2c0.1,0,0.3,0.1,0.5,0.3c0.2,0.2,0.5,0.5,0.8,0.8c-0.1,0.1-0.2,0.3-0.3,0.6c-0.2,0.3-0.3,0.6-0.5,1
		c-0.2,0.4-0.4,0.8-0.6,1.3c-0.2,0.5-0.4,0.9-0.6,1.4c-0.2,0.5-0.3,0.9-0.4,1.3c-0.1,0.4-0.2,0.8-0.2,1.1c0,0.2,0,0.4,0.1,0.6
		c0.1,0.1,0.2,0.2,0.4,0.2c0.3,0,0.7-0.1,1.2-0.4c0.4-0.3,0.9-0.7,1.3-1.1c0.4-0.4,0.9-0.9,1.3-1.4c0.4-0.5,0.7-0.9,1-1.3L52.8,76.2
		z"/>
	<path class="st1" d="M64.6,60.8c0,0.5-0.2,1.1-0.6,1.8c-0.4,0.7-0.8,1.5-1.4,2.4c-0.6,0.9-1.3,1.7-2,2.6c-0.7,0.9-1.5,1.7-2.2,2.5
		c-0.8,0.8-1.5,1.5-2.2,2.1c-0.7,0.6-1.3,1.1-1.8,1.4c-0.3,0.9-0.5,1.7-0.7,2.4c-0.2,0.7-0.3,1.4-0.3,2c0,0.7,0.1,1.2,0.4,1.6
		c0.3,0.4,0.7,0.6,1.3,0.5c0.6,0,1.2-0.2,1.7-0.4c0.5-0.3,1-0.6,1.5-1c0.5-0.4,0.9-0.9,1.3-1.4c0.4-0.5,0.8-1.1,1.2-1.6l0.3,0.3
		c-0.4,0.6-0.9,1.2-1.3,1.7c-0.5,0.6-0.9,1.1-1.4,1.5c-0.5,0.4-1.1,0.8-1.6,1c-0.6,0.3-1.2,0.4-1.9,0.4c-0.9,0-1.6-0.3-2-0.9
		c-0.4-0.6-0.6-1.4-0.6-2.3c0-1,0.2-2.1,0.5-3.4c0.4-1.3,0.8-2.5,1.4-3.9c0.6-1.3,1.3-2.6,2.1-3.8c0.8-1.2,1.6-2.4,2.4-3.4
		c0.8-1,1.7-1.8,2.5-2.4c0.8-0.6,1.6-0.9,2.3-0.9c0.4,0,0.6,0.1,0.8,0.3C64.5,60.3,64.6,60.5,64.6,60.8z M63.5,60.3
		c-0.3,0-0.7,0.2-1.2,0.5c-0.5,0.4-1,0.8-1.5,1.5c-0.5,0.6-1.1,1.3-1.6,2.2c-0.6,0.8-1.1,1.7-1.7,2.6C57,68,56.4,69,56,70
		c-0.5,1-0.9,2-1.3,2.9c0.5-0.4,1.1-0.9,1.8-1.5c0.7-0.6,1.4-1.3,2.1-2.1s1.4-1.6,2.1-2.4c0.7-0.8,1.3-1.6,1.8-2.4
		c0.5-0.8,0.9-1.5,1.2-2.1c0.3-0.6,0.5-1.1,0.4-1.5C64,60.6,63.8,60.4,63.5,60.3z"/>
	<path class="st1" d="M73.5,76.4c-0.5,0.7-1.1,1.4-1.7,2.1c-0.6,0.7-1.2,1.3-1.9,1.7c-0.3,0.2-0.6,0.3-1,0.5s-0.8,0.2-1.1,0.2
		c-0.4,0-0.8-0.1-1.1-0.4c-0.3-0.3-0.5-0.8-0.5-1.5c0-0.2,0-0.4,0-0.7c0-0.2,0.1-0.5,0.1-0.8c-0.3,0.4-0.7,0.8-1,1.2
		c-0.4,0.4-0.8,0.7-1.2,1c-0.4,0.3-0.8,0.5-1.2,0.7s-0.7,0.3-1.1,0.3c-0.7,0-1.2-0.2-1.5-0.6c-0.3-0.4-0.5-1-0.5-1.6
		c0-0.5,0.1-1,0.2-1.5c0.1-0.5,0.3-1.1,0.6-1.6c0.3-0.5,0.6-1.1,0.9-1.5s0.8-0.9,1.2-1.3c0.5-0.4,0.9-0.7,1.5-0.9
		c0.5-0.2,1.1-0.3,1.6-0.3c0.8,0,1.5,0.4,2,1c0-0.1,0.1-0.2,0.1-0.2c0-0.1,0.1-0.2,0.1-0.2c0.2-0.4,0.4-0.6,0.6-0.6
		c0.2,0,0.3,0.1,0.5,0.3c0.2,0.2,0.4,0.5,0.7,0.8c-0.1,0.1-0.2,0.3-0.4,0.5c-0.2,0.3-0.4,0.6-0.6,1c-0.2,0.4-0.4,0.8-0.7,1.3
		c-0.2,0.5-0.5,1-0.7,1.4c-0.2,0.5-0.4,1-0.5,1.4c-0.1,0.5-0.2,0.9-0.2,1.2c0,0.4,0,0.7,0.2,0.9c0.2,0.2,0.4,0.2,0.6,0.2
		c0.3,0,0.6-0.1,1-0.2c0.4-0.2,0.6-0.3,0.8-0.4c0.7-0.4,1.3-1,1.8-1.6c0.5-0.6,1.1-1.3,1.6-2L73.5,76.4z M62.1,80.4
		c0.3,0,0.6-0.1,1-0.4c0.4-0.3,0.8-0.6,1.2-1c0.4-0.4,0.8-0.8,1.2-1.3c0.4-0.5,0.8-0.9,1.1-1.4c0.2-0.6,0.4-1.3,0.6-1.9
		c0.2-0.6,0.5-1.2,0.7-1.7c-0.2-0.2-0.4-0.4-0.6-0.5c-0.2-0.1-0.4-0.2-0.7-0.2c-0.3,0-0.7,0.1-1.1,0.4c-0.4,0.3-0.8,0.6-1.2,1
		c-0.4,0.4-0.8,0.9-1.2,1.4c-0.4,0.5-0.7,1.1-1,1.6c-0.3,0.5-0.5,1.1-0.7,1.6c-0.2,0.5-0.3,0.9-0.3,1.3c0,0.3,0.1,0.5,0.2,0.7
		C61.6,80.3,61.8,80.4,62.1,80.4z"/>
	<path class="st1" d="M91.1,76.4c-0.5,0.7-1,1.3-1.4,1.8c-0.5,0.5-0.9,1-1.4,1.4c-0.5,0.4-1,0.8-1.6,1.1c-0.6,0.3-1.2,0.7-2,1
		c-0.3,0.6-0.6,1.3-1,2c-0.4,0.7-0.8,1.5-1.3,2.2c-0.5,0.8-1,1.5-1.5,2.2c-0.5,0.7-1.1,1.4-1.7,1.9c-0.6,0.6-1.2,1-1.8,1.4
		c-0.6,0.3-1.2,0.5-1.8,0.5c-0.4,0-0.7-0.2-0.9-0.5c-0.2-0.3-0.4-0.7-0.4-1.2c0-0.8,0.1-1.5,0.4-2.1c0.3-0.6,0.7-1.2,1.2-1.8
		c0.5-0.5,1-1,1.6-1.5c0.6-0.4,1.2-0.8,1.9-1.2c0.6-0.4,1.3-0.7,1.9-1c0.6-0.3,1.2-0.5,1.6-0.8c0.4-0.8,0.7-1.6,1-2.3
		c0.3-0.8,0.6-1.5,0.9-2.3c-0.3,0.4-0.7,0.8-1.2,1.2c-0.4,0.4-0.9,0.7-1.3,1c-0.4,0.3-0.9,0.5-1.3,0.7c-0.4,0.2-0.8,0.3-1.1,0.3
		c-0.7,0-1.2-0.2-1.5-0.6c-0.3-0.4-0.5-1-0.5-1.6c0-0.5,0.1-1,0.2-1.5c0.1-0.5,0.3-1.1,0.6-1.6c0.3-0.5,0.6-1.1,0.9-1.5
		c0.4-0.5,0.8-0.9,1.2-1.3c0.5-0.4,0.9-0.7,1.5-0.9c0.5-0.2,1.1-0.3,1.6-0.3c0.4,0,0.8,0.1,1.2,0.3s0.7,0.4,1,0.8
		c0.1-0.3,0.1-0.6,0.1-0.9c0.2,0,0.5,0,0.6,0c0.2,0,0.3,0,0.5,0c0.2,0,0.4,0.1,0.4,0.2c0.1,0.1,0.1,0.4,0,0.9
		c-0.1,0.5-0.2,1.1-0.4,1.8c-0.2,0.7-0.4,1.4-0.6,2.1c-0.2,0.7-0.5,1.5-0.8,2.3c-0.3,0.8-0.7,1.6-1,2.4c0.7-0.3,1.3-0.6,1.8-1
		c0.5-0.3,1-0.7,1.4-1.1c0.4-0.4,0.8-0.8,1.2-1.3c0.4-0.5,0.8-1,1.3-1.6L91.1,76.4z M75.5,91.5c0.4,0,0.9-0.2,1.4-0.5
		c0.5-0.3,0.9-0.7,1.4-1.2c0.5-0.5,0.9-1.1,1.3-1.7c0.4-0.6,0.8-1.3,1.2-1.9c0.4-0.6,0.7-1.3,1-1.9c0.3-0.6,0.6-1.1,0.8-1.5
		c-0.4,0.2-0.9,0.4-1.4,0.7c-0.5,0.3-1.1,0.6-1.7,0.9c-0.6,0.3-1.2,0.7-1.7,1.2c-0.6,0.4-1.1,0.9-1.6,1.4c-0.5,0.5-0.8,1-1.1,1.6
		c-0.3,0.6-0.4,1.2-0.4,1.9c0,0.3,0.1,0.6,0.3,0.8C75.1,91.4,75.3,91.5,75.5,91.5z M80,80.3c0.3,0,0.7-0.2,1.2-0.4
		c0.5-0.3,1-0.6,1.5-1c0.5-0.4,1-0.9,1.4-1.3c0.5-0.5,0.8-0.9,1.1-1.4c0.2-0.6,0.4-1.1,0.5-1.6c0.1-0.5,0.3-1,0.4-1.5
		c-0.2-0.4-0.5-0.6-0.7-0.8c-0.3-0.2-0.5-0.2-0.8-0.2c-0.3,0-0.7,0.1-1.1,0.4c-0.4,0.3-0.8,0.6-1.2,1c-0.4,0.4-0.8,0.9-1.2,1.4
		c-0.4,0.5-0.7,1.1-1,1.6c-0.3,0.5-0.5,1.1-0.7,1.6c-0.2,0.5-0.3,0.9-0.3,1.3c0,0.3,0.1,0.5,0.2,0.7C79.5,80.3,79.7,80.3,80,80.3z"
		/>
	<path class="st1" d="M103.6,76.4c-0.5,0.7-1.1,1.4-1.7,2.1c-0.6,0.7-1.2,1.3-1.9,1.7c-0.3,0.2-0.6,0.3-1,0.5
		c-0.4,0.1-0.8,0.2-1.1,0.2c-0.4,0-0.8-0.1-1.1-0.4c-0.3-0.3-0.5-0.8-0.5-1.5c0-0.2,0-0.4,0-0.7c0-0.2,0.1-0.5,0.1-0.8
		c-0.3,0.4-0.7,0.8-1,1.2c-0.4,0.4-0.8,0.7-1.2,1c-0.4,0.3-0.8,0.5-1.2,0.7s-0.7,0.3-1.1,0.3c-0.7,0-1.2-0.2-1.5-0.6
		c-0.3-0.4-0.5-1-0.5-1.6c0-0.5,0.1-1,0.2-1.5c0.1-0.5,0.3-1.1,0.6-1.6c0.3-0.5,0.6-1.1,0.9-1.5s0.8-0.9,1.2-1.3
		c0.5-0.4,0.9-0.7,1.5-0.9c0.5-0.2,1.1-0.3,1.6-0.3c0.8,0,1.5,0.4,2,1c0-0.1,0.1-0.2,0.1-0.2c0-0.1,0.1-0.2,0.1-0.2
		c0.2-0.4,0.4-0.6,0.6-0.6c0.2,0,0.3,0.1,0.5,0.3c0.2,0.2,0.4,0.5,0.7,0.8c-0.1,0.1-0.2,0.3-0.4,0.5c-0.2,0.3-0.4,0.6-0.6,1
		c-0.2,0.4-0.4,0.8-0.7,1.3c-0.2,0.5-0.5,1-0.7,1.4c-0.2,0.5-0.4,1-0.5,1.4c-0.1,0.5-0.2,0.9-0.2,1.2c0,0.4,0,0.7,0.2,0.9
		c0.2,0.2,0.4,0.2,0.6,0.2c0.3,0,0.6-0.1,1-0.2c0.4-0.2,0.6-0.3,0.8-0.4c0.7-0.4,1.3-1,1.8-1.6s1.1-1.3,1.6-2L103.6,76.4z
		 M92.2,80.4c0.3,0,0.6-0.1,1-0.4c0.4-0.3,0.8-0.6,1.2-1c0.4-0.4,0.8-0.8,1.2-1.3c0.4-0.5,0.8-0.9,1.1-1.4c0.2-0.6,0.4-1.3,0.6-1.9
		c0.2-0.6,0.5-1.2,0.7-1.7c-0.2-0.2-0.4-0.4-0.6-0.5c-0.2-0.1-0.4-0.2-0.7-0.2c-0.3,0-0.7,0.1-1.1,0.4c-0.4,0.3-0.8,0.6-1.2,1
		c-0.4,0.4-0.8,0.9-1.2,1.4c-0.4,0.5-0.7,1.1-1,1.6c-0.3,0.5-0.5,1.1-0.7,1.6c-0.2,0.5-0.3,0.9-0.3,1.3c0,0.3,0.1,0.5,0.2,0.7
		C91.7,80.3,91.9,80.4,92.2,80.4z"/>
	<path class="st1" d="M111.6,76.3c-0.4,0.6-0.8,0.9-1.3,1.2s-0.9,0.3-1.3,0.3c-0.2,0-0.5,0-0.7-0.1c-0.2,1-0.5,1.7-1.1,2.3
		c-0.6,0.6-1.3,0.9-2.2,0.9c-0.5,0-0.9-0.2-1.2-0.5c-0.3-0.4-0.5-0.9-0.5-1.5c0-0.3,0.1-0.6,0.2-0.9c0.1-0.3,0.2-0.5,0.4-0.7
		c0.2-0.2,0.4-0.4,0.6-0.5c0.2-0.1,0.5-0.2,0.7-0.2c0.3,0,0.6,0,0.9,0.1c0.3,0.1,0.6,0.1,0.9,0.2c0-0.6-0.1-1.2-0.2-1.8
		c-0.1-0.6-0.2-1.2-0.3-1.9c-0.6,0.7-1.1,1.3-1.7,1.9c-0.5,0.6-1,1.1-1.2,1.5l-0.3-0.4c0.1-0.2,0.3-0.4,0.6-0.7
		c0.2-0.3,0.5-0.6,0.8-0.9c0.3-0.3,0.6-0.6,0.9-1c0.3-0.3,0.6-0.7,0.9-1.1c0-0.3-0.1-0.5-0.1-0.8c0-0.3,0-0.5,0-0.8
		c0-0.7,0.1-1.2,0.2-1.7c0.1-0.5,0.2-0.9,0.4-1.2c0.2-0.3,0.4-0.5,0.6-0.7c0.2-0.1,0.4-0.2,0.6-0.2c0.3,0,0.5,0.1,0.7,0.4
		c0.2,0.2,0.3,0.6,0.3,1c0,0.4-0.1,0.9-0.3,1.4c-0.2,0.5-0.6,1.2-1.1,1.8c0.2,0.8,0.4,1.5,0.6,2.3c0.2,0.7,0.3,1.5,0.3,2.3
		c0,0.1,0,0.3,0,0.4c0,0.1,0,0.3,0,0.4c0.5,0.1,1,0,1.5-0.1c0.5-0.2,0.9-0.5,1.4-1.1L111.6,76.3z M105.1,80.4c0.3,0,0.6-0.1,0.9-0.2
		c0.2-0.2,0.4-0.4,0.6-0.6c0.2-0.3,0.3-0.6,0.3-0.9c0.1-0.4,0.1-0.8,0.1-1.2c-0.3-0.1-0.6-0.2-0.9-0.2c-0.3-0.1-0.6-0.1-0.9-0.1
		c-0.4,0-0.7,0.2-1,0.5c-0.3,0.3-0.5,0.7-0.4,1.3c0,0.5,0.1,0.9,0.4,1.2C104.4,80.3,104.7,80.4,105.1,80.4z M107.5,71.2
		c0.4-0.6,0.7-1.1,0.9-1.5c0.2-0.4,0.3-0.8,0.3-1.1c0-0.3-0.1-0.5-0.2-0.6c-0.1-0.1-0.3-0.2-0.4-0.2c-0.2,0-0.4,0.1-0.6,0.3
		c-0.2,0.2-0.3,0.5-0.3,0.9c0,0.4,0,0.7,0.1,1.1C107.3,70.4,107.4,70.8,107.5,71.2z"/>
	<path class="st1" d="M118.3,67C118.3,66.9,118.4,67,118.3,67c0.1,0.1,0.1,0.2,0.2,0.2c0,0.1,0,0.1,0,0.2c0,0.1,0,0.1-0.1,0.1
		c-0.5,0.2-1.1,0.4-1.6,0.4c-0.3,0-0.5,0-0.8-0.1c-0.3-0.1-0.5-0.1-0.7-0.2c-0.4,0.8-0.8,1.8-1.2,2.8c-0.4,1-0.8,2.1-1.1,3.1
		c-0.3,1-0.6,2-0.9,2.9c-0.2,0.9-0.3,1.7-0.3,2.4c0,0.5,0.1,0.8,0.2,1.1c0.1,0.3,0.4,0.4,0.7,0.4c0.5,0,0.9-0.1,1.4-0.4
		c0.5-0.3,1-0.6,1.4-1.1c0.5-0.4,0.9-0.9,1.3-1.4c0.4-0.5,0.8-1,1.1-1.4l0.3,0.3c-0.4,0.5-0.8,1-1.2,1.6c-0.4,0.5-0.9,1-1.4,1.5
		c-0.5,0.4-1,0.8-1.5,1.1c-0.5,0.3-1.1,0.4-1.6,0.4c-0.6,0-1.1-0.2-1.3-0.7c-0.3-0.5-0.4-1.1-0.4-1.9c0-0.8,0.1-1.7,0.3-2.6
		s0.4-2,0.7-3c0.3-1,0.6-2,0.9-3c0.3-1,0.6-1.8,0.9-2.6c-0.3-0.1-0.7-0.2-1-0.3c-0.3-0.1-0.7-0.2-1-0.2c-0.2,0-0.4,0-0.6,0.1
		c-0.2,0-0.4,0.1-0.6,0.2c0,0-0.1,0-0.1-0.1c0-0.1,0-0.1-0.1-0.2c0-0.1,0-0.1,0-0.2c0-0.1,0-0.1,0-0.1c0.2-0.1,0.5-0.2,0.7-0.2
		c0.2,0,0.4-0.1,0.6-0.1c0.4,0,0.8,0.1,1.1,0.2c0.4,0.1,0.7,0.2,1.1,0.4l0.5-1.4c0.2-0.4,0.3-0.7,0.4-0.9c0.1-0.2,0.2-0.3,0.3-0.3
		c0.1,0,0.3,0.1,0.5,0.2c0.2,0.1,0.5,0.3,0.9,0.5l-1.1,2.4c0.5,0.2,0.9,0.2,1.4,0.2c0.2,0,0.5,0,0.7-0.1
		C117.8,67.2,118,67.1,118.3,67z"/>
	<path class="st1" d="M127.2,76.4c-0.4,0.5-0.8,1-1.2,1.6c-0.4,0.5-0.9,1-1.4,1.5c-0.5,0.4-1,0.8-1.6,1.1c-0.5,0.3-1.1,0.4-1.7,0.4
		c-0.4,0-0.8-0.1-1.1-0.4c-0.3-0.2-0.5-0.7-0.5-1.3c0-0.4,0.1-0.9,0.2-1.5c0.1-0.5,0.3-1.1,0.6-1.6c0.2-0.6,0.5-1.1,0.8-1.6
		c0.3-0.5,0.5-1,0.8-1.4c0.2-0.3,0.3-0.5,0.4-0.7c0.1-0.1,0.1-0.2,0.1-0.3c0-0.1-0.1-0.1-0.2-0.1c-0.1,0-0.2,0-0.4-0.1
		c-0.2,0-0.4-0.1-0.6-0.1c-0.2-0.1-0.4-0.1-0.6-0.2c-0.2,0.5-0.5,1.1-0.8,1.6c-0.3,0.5-0.6,1-0.9,1.5c-0.3,0.4-0.5,0.8-0.7,1.2
		c-0.2,0.3-0.4,0.5-0.5,0.7l-0.3-0.4c0.1-0.1,0.2-0.3,0.5-0.7c0.2-0.3,0.5-0.7,0.7-1.1c0.3-0.4,0.5-0.9,0.8-1.4
		c0.3-0.5,0.5-1,0.8-1.5c-0.6-0.2-1-0.6-1.2-1c-0.3-0.4-0.4-0.9-0.4-1.3c0-0.2,0-0.5,0.1-0.7c0.1-0.2,0.2-0.4,0.3-0.6
		c0.1-0.2,0.3-0.3,0.5-0.4c0.2-0.1,0.4-0.2,0.6-0.2c0.3,0,0.6,0.1,0.9,0.4c0.3,0.3,0.4,0.7,0.4,1.2c0,0.3,0,0.6-0.1,1
		c-0.1,0.4-0.2,0.8-0.4,1.3c0.2,0.1,0.5,0.1,0.8,0.2c0.3,0.1,0.6,0.1,0.9,0.1c0.7,0.1,1.1,0.3,1.1,0.8c0,0.2,0,0.4-0.1,0.6
		c-0.1,0.2-0.2,0.5-0.3,0.8c-0.2,0.5-0.5,1.1-0.8,1.6c-0.3,0.6-0.5,1.1-0.7,1.7c-0.2,0.6-0.4,1.1-0.6,1.6c-0.2,0.5-0.2,0.9-0.2,1.3
		c0,0.3,0.2,0.4,0.5,0.4c0.5,0,0.9-0.1,1.4-0.4c0.5-0.3,1-0.7,1.4-1.1c0.5-0.4,0.9-0.9,1.3-1.4c0.4-0.5,0.8-0.9,1.1-1.3L127.2,76.4z
		 M120.9,71c0.4-0.8,0.5-1.5,0.5-2c0-0.4-0.1-0.7-0.2-0.9c-0.2-0.2-0.3-0.3-0.5-0.3c-0.3,0-0.5,0.1-0.6,0.4
		c-0.1,0.3-0.2,0.6-0.2,0.9c0,0.4,0.1,0.8,0.3,1.2C120.2,70.6,120.5,70.9,120.9,71z"/>
	<path class="st1" d="M137.5,76.4c-0.2,0.3-0.5,0.7-0.8,1.1c-0.3,0.4-0.6,0.7-0.9,1c-0.3,0.3-0.7,0.5-1,0.7
		c-0.4,0.2-0.7,0.3-1.1,0.3c-0.4,0-0.8-0.1-1.1-0.4c-0.5,0.6-1,1-1.6,1.3c-0.6,0.3-1.2,0.5-1.8,0.5c-0.4,0-0.8-0.1-1.1-0.3
		c-0.3-0.2-0.6-0.4-0.8-0.7c-0.2-0.3-0.4-0.6-0.5-1c-0.1-0.4-0.2-0.8-0.2-1.2c0-0.7,0.1-1.4,0.4-2.2c0.3-0.8,0.6-1.5,1.1-2.1
		c0.5-0.6,1.1-1.1,1.8-1.5c0.7-0.4,1.5-0.6,2.4-0.6c0.3,0,0.6,0.1,0.8,0.2c0.3,0.1,0.5,0.2,0.7,0.4c0.2,0.2,0.3,0.5,0.4,0.8
		c0.1,0.3,0.1,0.7,0,1.1c-0.1,0-0.2,0-0.2,0c-0.1,0-0.1,0-0.1,0c0,0,0,0,0-0.1c0-0.1,0-0.1,0-0.2c0-0.5-0.1-0.9-0.5-1.2
		c-0.3-0.2-0.7-0.3-1.1-0.3c-0.6,0-1.2,0.3-1.7,0.7c-0.5,0.4-1,1-1.3,1.6c-0.4,0.6-0.7,1.3-0.9,2c-0.2,0.7-0.3,1.4-0.3,2
		c0,0.6,0.1,1.1,0.3,1.5c0.2,0.4,0.6,0.6,1,0.6c0.2,0,0.5,0,0.7-0.1c0.3-0.1,0.5-0.2,0.8-0.4c0.3-0.2,0.5-0.3,0.7-0.5
		c0.2-0.2,0.4-0.4,0.6-0.6c-0.2-0.2-0.3-0.5-0.4-0.8c-0.1-0.3-0.1-0.7-0.1-1c0-0.3,0-0.7,0.1-1c0.1-0.3,0.2-0.7,0.3-0.9
		c0.1-0.3,0.3-0.5,0.5-0.7c0.2-0.2,0.4-0.3,0.7-0.3c0.3,0,0.5,0.1,0.7,0.2c0.2,0.2,0.2,0.5,0.2,0.8c0,0.3-0.1,0.6-0.2,1
		c-0.1,0.4-0.2,0.7-0.4,1c-0.2,0.3-0.3,0.6-0.5,0.9c-0.2,0.3-0.3,0.5-0.5,0.8c0.1,0.1,0.2,0.1,0.3,0.2c0.1,0.1,0.3,0.1,0.4,0.1
		c0.3,0,0.7-0.1,1-0.3c0.3-0.2,0.7-0.4,1-0.7c0.3-0.3,0.6-0.6,0.9-0.9c0.3-0.3,0.5-0.7,0.7-1L137.5,76.4z M132.6,78.3
		c0.1-0.2,0.3-0.4,0.4-0.7c0.2-0.3,0.3-0.5,0.5-0.9c0.1-0.3,0.3-0.6,0.4-0.9c0.1-0.3,0.1-0.6,0.2-0.9c0-0.2,0-0.4-0.1-0.5
		c-0.1-0.1-0.2-0.1-0.4-0.1c-0.2,0-0.4,0.1-0.5,0.2c-0.2,0.2-0.3,0.3-0.4,0.6c-0.1,0.2-0.2,0.5-0.2,0.8c-0.1,0.3-0.1,0.6-0.1,0.9
		c0,0.3,0,0.6,0.1,0.8C132.4,77.8,132.5,78.1,132.6,78.3z M153.7,69.4c0,0.1-0.1,0.1-0.2,0.1c-0.1,0-0.1,0-0.1-0.1
		c0-0.1,0-0.1,0-0.2c0-0.1,0-0.2,0.1-0.3c0.2-0.3,0.3-0.5,0.5-0.7c0.2-0.2,0.4-0.4,0.6-0.5c0.2-0.2,0.4-0.3,0.6-0.3s0.4-0.1,0.5,0
		c0.1,0,0.1,0,0.1,0.1s0.1,0.2,0.1,0.2c0,0.1,0,0.2,0,0.3c0,0.1-0.1,0.2-0.1,0.2c-0.1,0-0.3,0.1-0.4,0.1c-0.2,0-0.4,0-0.5,0.1
		c-0.2,0.1-0.4,0.2-0.6,0.3C154,68.9,153.8,69.1,153.7,69.4z"/>
	<path class="st1" d="M148.4,76.3c-0.5,0.5-1,1.1-1.5,1.6c-0.5,0.6-1,1-1.4,1.5c-0.5,0.4-0.9,0.8-1.4,1.1c-0.5,0.3-0.9,0.4-1.4,0.3
		c-0.2,0-0.4-0.1-0.5-0.3c-0.1-0.2-0.1-0.4-0.1-0.6c0-0.5,0.1-1,0.4-1.7s0.5-1.4,0.8-2.1c0.3-0.7,0.6-1.4,0.8-2
		c0.2-0.6,0.4-1.2,0.4-1.6c0-0.4-0.2-0.6-0.5-0.6c-0.4,0-0.8,0.2-1.3,0.5c-0.5,0.4-1,0.8-1.5,1.4c-0.5,0.6-1,1.2-1.5,1.9
		c-0.5,0.7-1,1.4-1.4,2.1c-0.2,0.5-0.3,1-0.5,1.4c-0.2,0.5-0.4,0.9-0.5,1.4c-0.3,0-0.6,0-0.8,0c-0.2,0-0.4,0-0.5,0
		c-0.2,0-0.3-0.1-0.3-0.2c0-0.2,0.1-0.5,0.3-1.1c0.5-1.4,1.1-2.8,1.6-4.3c0.5-1.5,1.1-2.9,1.6-4.3c0.5,0,0.9,0.1,1.1,0.2
		c0.2,0.1,0.3,0.2,0.3,0.4c0,0.1,0,0.2-0.1,0.3c0,0.1-0.1,0.2-0.2,0.4c-0.2,0.6-0.5,1.3-0.7,1.9c-0.2,0.6-0.5,1.3-0.7,2
		c0.4-0.6,0.8-1.2,1.3-1.7c0.5-0.6,0.9-1,1.4-1.5c0.5-0.4,0.9-0.8,1.4-1c0.5-0.3,0.9-0.4,1.4-0.4c0.5,0,0.9,0.2,1.1,0.4
		c0.2,0.3,0.3,0.6,0.3,1c0,0.4-0.1,0.9-0.3,1.4c-0.2,0.5-0.4,1.1-0.6,1.6c-0.2,0.6-0.5,1.1-0.8,1.6c-0.3,0.5-0.5,1-0.7,1.4
		c-0.2,0.4-0.3,0.7-0.4,1c-0.1,0.3,0,0.4,0.1,0.4c0.2,0,0.4-0.1,0.7-0.2c0.3-0.2,0.6-0.4,0.9-0.6c0.3-0.3,0.6-0.5,1-0.9
		c0.3-0.3,0.6-0.6,1-0.9c0.3-0.3,0.6-0.6,0.8-0.9c0.2-0.3,0.4-0.5,0.6-0.7L148.4,76.3z"/>
	<path class="st1" d="M158.7,76.4c-0.2,0.3-0.5,0.7-0.8,1.1c-0.3,0.4-0.6,0.7-0.9,1c-0.3,0.3-0.7,0.5-1,0.7
		c-0.4,0.2-0.7,0.3-1.1,0.3c-0.4,0-0.8-0.1-1.1-0.4c-0.5,0.6-1,1-1.6,1.3c-0.6,0.3-1.2,0.5-1.8,0.5c-0.4,0-0.8-0.1-1.1-0.3
		c-0.3-0.2-0.6-0.4-0.8-0.7c-0.2-0.3-0.4-0.6-0.5-1c-0.1-0.4-0.2-0.8-0.2-1.2c0-0.7,0.1-1.4,0.4-2.2c0.3-0.8,0.6-1.5,1.1-2.1
		c0.5-0.6,1.1-1.1,1.8-1.5c0.7-0.4,1.5-0.6,2.4-0.6c0.3,0,0.6,0.1,0.8,0.2c0.3,0.1,0.5,0.2,0.7,0.4c0.2,0.2,0.3,0.5,0.4,0.8
		c0.1,0.3,0.1,0.7,0,1.1c-0.1,0-0.2,0-0.2,0c-0.1,0-0.1,0-0.1,0c0,0,0,0,0-0.1c0-0.1,0-0.1,0-0.2c0-0.5-0.1-0.9-0.5-1.2
		c-0.3-0.2-0.7-0.3-1.1-0.3c-0.6,0-1.2,0.3-1.7,0.7c-0.5,0.4-1,1-1.3,1.6c-0.4,0.6-0.7,1.3-0.9,2c-0.2,0.7-0.3,1.4-0.3,2
		c0,0.6,0.1,1.1,0.3,1.5c0.2,0.4,0.6,0.6,1,0.6c0.2,0,0.5,0,0.7-0.1c0.3-0.1,0.5-0.2,0.8-0.4c0.3-0.2,0.5-0.3,0.7-0.5
		c0.2-0.2,0.4-0.4,0.6-0.6c-0.2-0.2-0.3-0.5-0.4-0.8c-0.1-0.3-0.1-0.7-0.1-1c0-0.3,0-0.7,0.1-1c0.1-0.3,0.2-0.7,0.3-0.9
		c0.1-0.3,0.3-0.5,0.5-0.7c0.2-0.2,0.4-0.3,0.7-0.3c0.3,0,0.5,0.1,0.7,0.2c0.2,0.2,0.2,0.5,0.2,0.8c0,0.3-0.1,0.6-0.2,1
		c-0.1,0.4-0.2,0.7-0.4,1c-0.2,0.3-0.3,0.6-0.5,0.9c-0.2,0.3-0.3,0.5-0.5,0.8c0.1,0.1,0.2,0.1,0.3,0.2c0.1,0.1,0.3,0.1,0.4,0.1
		c0.3,0,0.7-0.1,1-0.3c0.3-0.2,0.7-0.4,1-0.7c0.3-0.3,0.6-0.6,0.9-0.9c0.3-0.3,0.5-0.7,0.7-1L158.7,76.4z M153.7,78.3
		c0.1-0.2,0.3-0.4,0.4-0.7c0.2-0.3,0.3-0.5,0.5-0.9c0.1-0.3,0.3-0.6,0.4-0.9c0.1-0.3,0.1-0.6,0.2-0.9c0-0.2,0-0.4-0.1-0.5
		c-0.1-0.1-0.2-0.1-0.4-0.1c-0.2,0-0.4,0.1-0.5,0.2c-0.2,0.2-0.3,0.3-0.4,0.6c-0.1,0.2-0.2,0.5-0.2,0.8c-0.1,0.3-0.1,0.6-0.1,0.9
		c0,0.3,0,0.6,0.1,0.8C153.5,77.8,153.6,78.1,153.7,78.3z"/>
	<path class="st1" d="M174.4,76.3c-0.3,0.4-0.8,0.9-1.2,1.4c-0.5,0.5-1,1-1.5,1.4c-0.5,0.4-1,0.8-1.5,1.1c-0.5,0.3-1,0.4-1.4,0.4
		c-0.2,0-0.4-0.1-0.5-0.2c-0.1-0.2-0.2-0.4-0.2-0.6c0-0.3,0.1-0.6,0.2-1c0.1-0.4,0.2-0.8,0.4-1.3c0.2-0.4,0.3-0.9,0.5-1.4
		c0.2-0.5,0.4-0.9,0.5-1.3c0.2-0.4,0.3-0.8,0.4-1.2c0.1-0.4,0.2-0.7,0.2-0.9c0-0.3-0.1-0.5-0.4-0.5c-0.4,0-0.8,0.1-1.2,0.5
		c-0.4,0.3-0.9,0.8-1.3,1.3c-0.4,0.5-0.8,1-1.2,1.6c-0.4,0.5-0.7,1-0.9,1.3c-0.2,0.4-0.3,0.8-0.5,1.2c-0.2,0.4-0.3,0.8-0.5,1.1
		c-0.1,0.3-0.3,0.7-0.4,0.9c-0.1,0.3-0.2,0.5-0.2,0.7c-0.2,0-0.3,0-0.5,0c-0.1,0-0.2,0-0.3,0c-0.2,0-0.3-0.1-0.3-0.2
		c-0.1-0.1,0-0.4,0-0.8c0.1-0.5,0.3-1.2,0.5-1.9c0.2-0.7,0.5-1.4,0.8-2.1c0.3-0.7,0.5-1.3,0.7-1.9c0.2-0.6,0.3-1.1,0.3-1.4
		c0-0.4-0.1-0.5-0.4-0.5c-0.3,0-0.6,0.1-1,0.4c-0.4,0.2-0.7,0.5-1.1,0.9c-0.4,0.4-0.7,0.8-1.1,1.3c-0.4,0.5-0.7,1-1,1.5
		c-0.3,0.5-0.6,1-0.9,1.6c-0.3,0.5-0.5,1-0.7,1.4c-0.1,0.3-0.2,0.5-0.3,0.8c-0.1,0.3-0.2,0.5-0.3,0.8c-0.6,0-1,0-1.2,0
		c-0.2,0-0.3-0.2-0.3-0.3c0-0.1,0-0.3,0.1-0.5c0.1-0.2,0.2-0.5,0.3-0.8c0.5-1.3,1-2.7,1.5-4.1c0.5-1.4,1-2.8,1.4-4.1
		c0.5,0,0.9,0.1,1.1,0.2c0.2,0.1,0.3,0.2,0.3,0.5c0,0.1,0,0.2-0.1,0.4c0,0.1-0.1,0.3-0.2,0.5l-1.4,4.1c0-0.1,0.1-0.1,0.1-0.2
		c0-0.1,0.1-0.2,0.1-0.2c0.3-0.5,0.6-1,1-1.6c0.4-0.5,0.7-1,1.2-1.5c0.4-0.4,0.9-0.8,1.3-1.1c0.5-0.3,1-0.4,1.5-0.4
		c0.5,0,0.8,0.2,1,0.4c0.2,0.3,0.3,0.6,0.3,1c0,0.3,0,0.6-0.1,1c-0.1,0.4-0.2,0.7-0.3,1.1c0.3-0.4,0.6-0.8,0.9-1.2
		c0.3-0.4,0.7-0.8,1.1-1.2c0.4-0.4,0.8-0.6,1.2-0.9c0.4-0.2,0.8-0.3,1.2-0.3c0.5,0,0.8,0.1,1,0.4s0.3,0.6,0.3,1
		c0,0.4-0.1,0.9-0.2,1.4c-0.2,0.5-0.3,1.1-0.5,1.6c-0.2,0.5-0.4,1.1-0.7,1.6c-0.2,0.5-0.4,1-0.6,1.4c-0.2,0.4-0.3,0.7-0.4,1
		c-0.1,0.2-0.1,0.4,0,0.4c0.3,0,0.7-0.2,1.2-0.5s0.9-0.7,1.4-1.1s0.9-0.9,1.4-1.4c0.4-0.5,0.8-0.9,1.1-1.2L174.4,76.3z"/>
	<path class="st1" d="M179.3,76.3c-0.2,0.3-0.5,0.7-0.9,1.2c-0.4,0.5-0.8,1-1.2,1.5c-0.4,0.5-0.9,0.9-1.3,1.2
		c-0.5,0.4-0.9,0.5-1.2,0.5c-0.4,0-0.7-0.1-0.9-0.5c-0.2-0.3-0.3-0.8-0.3-1.3c0-0.5,0.1-1,0.2-1.5c0.1-0.6,0.3-1.1,0.4-1.7
		c0.2-0.6,0.4-1.1,0.6-1.7c0.2-0.5,0.4-1,0.6-1.5c0.2-0.4,0.4-0.8,0.6-1c0.2-0.3,0.3-0.4,0.5-0.4c0.1,0,0.3,0.1,0.5,0.3
		c0.2,0.2,0.4,0.5,0.8,0.8c-0.1,0.1-0.2,0.3-0.4,0.6c-0.2,0.3-0.4,0.7-0.7,1.1c-0.3,0.4-0.5,0.9-0.8,1.5c-0.3,0.5-0.5,1.1-0.7,1.6
		c-0.2,0.5-0.4,1-0.5,1.5c-0.1,0.5-0.2,0.8-0.2,1.1c0,0.4,0.1,0.6,0.4,0.6c0.3,0,0.6-0.2,1-0.5c0.4-0.3,0.8-0.7,1.2-1.2
		c0.4-0.5,0.8-0.9,1.2-1.4c0.4-0.5,0.7-0.9,0.9-1.1L179.3,76.3z M178,69.6c-0.2,0-0.4-0.1-0.5-0.3c-0.1-0.2-0.2-0.4-0.2-0.6
		c0-0.2,0.1-0.5,0.2-0.6c0.1-0.2,0.3-0.3,0.5-0.3c0.2,0,0.4,0.1,0.5,0.3c0.1,0.2,0.2,0.4,0.2,0.6c0,0.2-0.1,0.5-0.2,0.6
		C178.4,69.5,178.2,69.6,178,69.6z"/>
	<path class="st1" d="M188.9,76.3c-0.5,0.7-1,1.4-1.4,2c-0.5,0.6-1,1-1.5,1.4c-0.5,0.4-1.1,0.7-1.7,0.8c-0.6,0.2-1.3,0.3-2.1,0.3
		c-0.6,0-1.2-0.1-1.6-0.2c-0.4-0.2-0.8-0.4-1.1-0.7c-0.3-0.3-0.5-0.6-0.6-1c-0.1-0.4-0.2-0.8-0.2-1.2c0-0.7,0.1-1.4,0.4-2.1
		c0.3-0.7,0.7-1.4,1.1-2c0.5-0.6,1-1.1,1.6-1.5c0.6-0.4,1.3-0.6,1.9-0.6c0.3,0,0.5,0,0.8,0.1c0.3,0.1,0.5,0.2,0.7,0.3
		c0.2,0.1,0.4,0.3,0.5,0.5c0.1,0.2,0.2,0.5,0.2,0.8c0,0.3-0.1,0.6-0.2,0.9l-0.4-0.2c0.2-0.5,0.1-0.9-0.1-1.2c-0.2-0.3-0.6-0.5-1-0.5
		c-0.4,0-0.8,0.2-1.3,0.6c-0.5,0.4-1,1-1.4,1.6c-0.5,0.6-0.9,1.3-1.2,2.1c-0.3,0.7-0.5,1.4-0.5,2c0,0.5,0.2,1,0.5,1.4
		s0.9,0.5,1.6,0.6c0.8,0,1.5-0.1,2.1-0.3c0.6-0.2,1.2-0.5,1.7-0.9c0.5-0.4,1-0.8,1.4-1.4c0.4-0.5,0.9-1.1,1.3-1.8L188.9,76.3z"/>
	<path class="st1" d="M201.4,76.4c-0.5,0.7-1.1,1.4-1.7,2.1c-0.6,0.7-1.2,1.3-1.9,1.7c-0.3,0.2-0.6,0.3-1,0.5s-0.8,0.2-1.1,0.2
		c-0.4,0-0.8-0.1-1.1-0.4c-0.3-0.3-0.5-0.8-0.5-1.5c0-0.2,0-0.4,0-0.7c0-0.2,0.1-0.5,0.1-0.8c-0.3,0.4-0.7,0.8-1,1.2
		c-0.4,0.4-0.8,0.7-1.2,1c-0.4,0.3-0.8,0.5-1.2,0.7c-0.4,0.2-0.7,0.3-1.1,0.3c-0.7,0-1.2-0.2-1.5-0.6c-0.3-0.4-0.5-1-0.5-1.6
		c0-0.5,0.1-1,0.2-1.5c0.1-0.5,0.3-1.1,0.6-1.6c0.3-0.5,0.6-1.1,0.9-1.5c0.4-0.5,0.8-0.9,1.2-1.3c0.5-0.4,0.9-0.7,1.5-0.9
		c0.5-0.2,1.1-0.3,1.6-0.3c0.8,0,1.5,0.4,2,1c0-0.1,0.1-0.2,0.1-0.2c0-0.1,0.1-0.2,0.1-0.2c0.2-0.4,0.4-0.6,0.6-0.6
		c0.2,0,0.3,0.1,0.5,0.3c0.2,0.2,0.4,0.5,0.7,0.8c-0.1,0.1-0.2,0.3-0.4,0.5c-0.2,0.3-0.4,0.6-0.6,1c-0.2,0.4-0.4,0.8-0.7,1.3
		c-0.2,0.5-0.5,1-0.7,1.4c-0.2,0.5-0.4,1-0.5,1.4c-0.1,0.5-0.2,0.9-0.2,1.2c0,0.4,0,0.7,0.2,0.9c0.2,0.2,0.4,0.2,0.6,0.2
		c0.3,0,0.6-0.1,1-0.2c0.4-0.2,0.6-0.3,0.8-0.4c0.7-0.4,1.3-1,1.8-1.6s1.1-1.3,1.6-2L201.4,76.4z M189.9,80.4c0.3,0,0.6-0.1,1-0.4
		c0.4-0.3,0.8-0.6,1.2-1c0.4-0.4,0.8-0.8,1.2-1.3c0.4-0.5,0.8-0.9,1.1-1.4c0.2-0.6,0.4-1.3,0.6-1.9c0.2-0.6,0.5-1.2,0.7-1.7
		c-0.2-0.2-0.4-0.4-0.6-0.5c-0.2-0.1-0.4-0.2-0.7-0.2c-0.3,0-0.7,0.1-1.1,0.4c-0.4,0.3-0.8,0.6-1.2,1c-0.4,0.4-0.8,0.9-1.2,1.4
		c-0.4,0.5-0.7,1.1-1,1.6c-0.3,0.5-0.5,1.1-0.7,1.6c-0.2,0.5-0.3,0.9-0.3,1.3c0,0.3,0.1,0.5,0.2,0.7
		C189.4,80.3,189.7,80.4,189.9,80.4z"/>
	<path class="st1" d="M207.3,75.2c0-0.8,0.5-1.4,1.3-1.4c0.8,0,1.2,0.6,1.3,1.4c0,0.8-0.5,1.4-1.3,1.4
		C207.8,76.6,207.3,76,207.3,75.2z"/>
</g>
</svg>
