<?xml version="1.0" encoding="utf-8"?>
<!-- Generator: Adobe Illustrator 24.0.1, SVG Export Plug-In . SVG Version: 6.00 Build 0)  -->
<svg version="1.1" id="Capa_1" xmlns="http://www.w3.org/2000/svg" xmlns:xlink="http://www.w3.org/1999/xlink" x="0px" y="0px"
	 viewBox="0 0 66 61.2" style="enable-background:new 0 0 66 61.2;" xml:space="preserve">
<style type="text/css">
	.st0{fill:#55595F;}
	.st1{fill:#AF9F84;stroke:#AF9F84;stroke-width:0.5;stroke-miterlimit:10;}
	.st2{fill:#26292E;}
</style>
<rect class="st2" width="66" height="61.2"/>
<g>
	<path class="st0" d="M36,44.8c0,0.9-0.1,2.5-0.2,4.6h-0.6c-0.2,0-0.7,0-1.6-0.1c-0.8-0.1-1.7-0.1-2.8-0.1L8.6,49.1
		c-0.6,0-0.9-0.2-0.9-0.5c0-0.2,0.5-0.4,1.4-0.5c1.4-0.1,2.2-0.2,2.4-0.5c0.3-0.2,0.4-0.9,0.4-2V15.5c0-1.3-0.1-2.1-0.4-2.3
		c-0.3-0.2-1.2-0.3-2.9-0.3c-0.7,0-1-0.2-1-0.6c0-0.3,0.2-0.5,0.6-0.5h0.5c1.2,0.1,3.5,0.2,7,0.2c0.3,0,0.9,0,1.9-0.1
		c0.9-0.1,1.7-0.1,2.3-0.1h0.6c0.6,0,1,0.2,1,0.5c0,0.2-0.1,0.3-0.3,0.4c-0.2,0.1-0.8,0.1-1.9,0.1c-1,0-1.7,0.2-1.9,0.5
		c-0.2,0.3-0.3,1.2-0.3,2.8v31.7c1,0,2.3,0.1,4,0.1c4.2,0,7.1-0.2,8.9-0.6c1.7-0.4,2.9-1.2,3.5-2.4c0.6-1.2,1-2.8,1.1-4.8
		c0-0.5,0.2-0.7,0.6-0.7c0.4,0,0.7,0.3,0.6,0.8v1.3c0,0.1,0,0.2,0,0.5c0,0.3,0,0.5,0,0.8V44.8z"/>
	<path class="st0" d="M58.3,44.3c0,2,0,3.7-0.1,5c-0.2,0-0.5,0.1-0.8,0.1c0,0-0.3,0-0.8-0.1c-0.5-0.1-1.2-0.1-2-0.1H52l-9.2-0.1
		h-4.4c-0.5,0-0.7-0.1-0.7-0.4c0-0.2,0.7-0.4,2.1-0.5c0.4,0,0.6-0.1,0.7-0.3c0.1-0.1,0.1-0.5,0.1-1.2v-18c0-2-0.2-3.1-0.5-3.2
		c-0.1-0.1-0.5-0.1-0.9-0.1c-0.5,0-0.8,0-0.9-0.1c-0.4,0-0.6-0.1-0.6-0.4c0-0.3,0.2-0.4,0.7-0.4h7.4c0.4,0,0.8,0,1.2,0
		c0.7,0,1,0.2,1,0.5c0,0.2-0.6,0.3-1.8,0.4c-0.6,0-0.9,0.2-1,0.4c-0.1,0.2-0.2,1-0.2,2.3v20c1.4,0,2.5,0.1,3.1,0.1
		c3.8,0,6.2-0.4,7.2-1.1c0.8-0.6,1.3-1.9,1.5-3.9c0.1-0.9,0.3-1.3,0.6-1.3C58.1,41.9,58.3,42.7,58.3,44.3z"/>
</g>
</svg>
